<svg xmlns="http://www.w3.org/2000/svg" xmlns:xlink="http://www.w3.org/1999/xlink" width="500" zoomAndPan="magnify" viewBox="0 0 375 374.999991" height="500" preserveAspectRatio="xMidYMid meet" version="1.0"><defs><g/></defs><rect x="-37.5" width="450" fill="#ffffff" y="-37.499999" height="449.999989" fill-opacity="1"/><rect x="-37.5" width="450" fill="#ffffff" y="-37.499999" height="449.999989" fill-opacity="1"/><g fill="#000000" fill-opacity="1"><g transform="translate(18.583387, 191.323696)"><g><path d="M 64.5 -56.484375 L 64.5 0 L 57.46875 0 L 57.46875 -29.0625 C 57.46875 -32.601562 57.476562 -36.226562 57.5 -39.9375 C 57.53125 -43.65625 57.570312 -47.039062 57.625 -50.09375 C 56.695312 -47.039062 55.617188 -43.644531 54.390625 -39.90625 C 53.160156 -36.164062 51.945312 -32.578125 50.75 -29.140625 L 40.765625 0 L 31.921875 0 L 21.78125 -29.3125 C 20.632812 -32.6875 19.457031 -36.21875 18.25 -39.90625 C 17.050781 -43.59375 15.988281 -46.9375 15.0625 -49.9375 C 15.164062 -46.875 15.21875 -43.5 15.21875 -39.8125 C 15.21875 -36.132812 15.21875 -32.550781 15.21875 -29.0625 L 15.21875 0 L 8.1875 0 L 8.1875 -56.484375 L 19.8125 -56.484375 L 36.515625 -5.96875 L 53.125 -56.484375 Z M 64.5 -56.484375 "/></g></g></g><g fill="#000000" fill-opacity="1"><g transform="translate(87.838067, 191.323696)"><g><path d="M 41.671875 -22.921875 C 41.671875 -22.585938 41.671875 -22.132812 41.671875 -21.5625 C 41.671875 -20.988281 41.613281 -20.320312 41.5 -19.5625 L 10.0625 -19.5625 C 10.28125 -15.738281 10.976562 -12.707031 12.15625 -10.46875 C 13.332031 -8.238281 14.816406 -6.644531 16.609375 -5.6875 C 18.410156 -4.726562 20.378906 -4.25 22.515625 -4.25 C 25.347656 -4.25 27.800781 -5.09375 29.875 -6.78125 C 31.945312 -8.476562 33.226562 -10.882812 33.71875 -14 L 41.09375 -14 C 40.550781 -10.507812 39.335938 -7.644531 37.453125 -5.40625 C 35.566406 -3.164062 33.300781 -1.515625 30.65625 -0.453125 C 28.007812 0.609375 25.1875 1.140625 22.1875 1.140625 C 18.414062 1.140625 15.039062 0.3125 12.0625 -1.34375 C 9.09375 -3.007812 6.75 -5.519531 5.03125 -8.875 C 3.3125 -12.238281 2.453125 -16.457031 2.453125 -21.53125 C 2.453125 -26.21875 3.351562 -30.28125 5.15625 -33.71875 C 6.957031 -37.164062 9.410156 -39.828125 12.515625 -41.703125 C 15.628906 -43.585938 19.148438 -44.53125 23.078125 -44.53125 C 27.066406 -44.53125 30.4375 -43.613281 33.1875 -41.78125 C 35.945312 -39.957031 38.050781 -37.421875 39.5 -34.171875 C 40.945312 -30.929688 41.671875 -27.179688 41.671875 -22.921875 Z M 22.921875 -39.125 C 19.484375 -39.125 16.601562 -37.921875 14.28125 -35.515625 C 11.96875 -33.117188 10.59375 -29.601562 10.15625 -24.96875 L 34.546875 -24.96875 C 34.210938 -29.5 33.078125 -32.988281 31.140625 -35.4375 C 29.203125 -37.894531 26.460938 -39.125 22.921875 -39.125 Z M 22.921875 -39.125 "/></g></g></g><g fill="#000000" fill-opacity="1"><g transform="translate(131.142628, 191.323696)"><g><path d="M 63.765625 -33.96875 C 63.929688 -32.875 64.039062 -31.796875 64.09375 -30.734375 C 64.144531 -29.671875 64.171875 -28.265625 64.171875 -26.515625 L 64.171875 0 L 57.140625 0 L 57.140625 -23.25 C 57.140625 -26.90625 57.03125 -29.710938 56.8125 -31.671875 C 56.476562 -34.128906 55.5625 -35.957031 54.0625 -37.15625 C 52.5625 -38.363281 50.585938 -38.96875 48.140625 -38.96875 C 46.335938 -38.96875 44.710938 -38.421875 43.265625 -37.328125 C 41.816406 -36.234375 40.679688 -34.414062 39.859375 -31.875 C 39.046875 -29.34375 38.640625 -25.867188 38.640625 -21.453125 L 38.640625 0 L 31.59375 0 L 31.59375 -23.25 C 31.59375 -26.90625 31.484375 -29.710938 31.265625 -31.671875 C 30.941406 -34.128906 30.03125 -35.957031 28.53125 -37.15625 C 27.03125 -38.363281 25.050781 -38.96875 22.59375 -38.96875 C 20.789062 -38.96875 19.164062 -38.421875 17.71875 -37.328125 C 16.269531 -36.234375 15.132812 -34.414062 14.3125 -31.875 C 13.5 -29.34375 13.09375 -25.867188 13.09375 -21.453125 L 13.09375 0 L 6.0625 0 L 6.0625 -43.390625 L 13.09375 -43.390625 L 13.09375 -37.078125 L 15.875 -42 C 16.96875 -42.925781 18.289062 -43.578125 19.84375 -43.953125 C 21.40625 -44.335938 23.140625 -44.53125 25.046875 -44.53125 C 28.378906 -44.53125 31.09375 -43.78125 33.1875 -42.28125 C 35.289062 -40.78125 36.753906 -38.828125 37.578125 -36.421875 L 41.421875 -42 C 42.515625 -42.925781 43.835938 -43.578125 45.390625 -43.953125 C 46.941406 -44.335938 48.675781 -44.53125 50.59375 -44.53125 C 54.46875 -44.53125 57.507812 -43.519531 59.71875 -41.5 C 61.925781 -39.476562 63.273438 -36.96875 63.765625 -33.96875 Z M 63.765625 -33.96875 "/></g></g></g><g fill="#000000" fill-opacity="1"><g transform="translate(199.496838, 191.323696)"><g><path d="M 23.984375 -44.53125 C 28.898438 -44.53125 32.953125 -43.476562 36.140625 -41.375 C 39.328125 -39.28125 41.6875 -36.5 43.21875 -33.03125 C 44.75 -29.5625 45.515625 -25.78125 45.515625 -21.6875 C 45.515625 -17.65625 44.75 -13.890625 43.21875 -10.390625 C 41.6875 -6.898438 39.328125 -4.101562 36.140625 -2 C 32.953125 0.09375 28.898438 1.140625 23.984375 1.140625 C 19.078125 1.140625 15.039062 0.09375 11.875 -2 C 8.707031 -4.101562 6.34375 -6.898438 4.78125 -10.390625 C 3.226562 -13.890625 2.453125 -17.65625 2.453125 -21.6875 C 2.453125 -25.78125 3.226562 -29.5625 4.78125 -33.03125 C 6.34375 -36.5 8.707031 -39.28125 11.875 -41.375 C 15.039062 -43.476562 19.078125 -44.53125 23.984375 -44.53125 Z M 23.984375 -4.25 C 26.929688 -4.25 29.425781 -5 31.46875 -6.5 C 33.519531 -8.007812 35.085938 -10.070312 36.171875 -12.6875 C 37.265625 -15.3125 37.8125 -18.3125 37.8125 -21.6875 C 37.8125 -26.820312 36.597656 -31.007812 34.171875 -34.25 C 31.742188 -37.5 28.347656 -39.125 23.984375 -39.125 C 19.617188 -39.125 16.222656 -37.5 13.796875 -34.25 C 11.367188 -31.007812 10.15625 -26.820312 10.15625 -21.6875 C 10.15625 -18.3125 10.695312 -15.3125 11.78125 -12.6875 C 12.875 -10.070312 14.441406 -8.007812 16.484375 -6.5 C 18.535156 -5 21.035156 -4.25 23.984375 -4.25 Z M 23.984375 -4.25 "/></g></g></g><g fill="#000000" fill-opacity="1"><g transform="translate(245.830294, 191.323696)"><g><path d="M 9.578125 -57.625 C 10.828125 -57.625 11.890625 -57.1875 12.765625 -56.3125 C 13.640625 -55.445312 14.078125 -54.382812 14.078125 -53.125 C 14.078125 -51.875 13.640625 -50.8125 12.765625 -49.9375 C 11.890625 -49.0625 10.828125 -48.625 9.578125 -48.625 C 8.316406 -48.625 7.25 -49.0625 6.375 -49.9375 C 5.507812 -50.8125 5.078125 -51.875 5.078125 -53.125 C 5.078125 -54.382812 5.507812 -55.445312 6.375 -56.3125 C 7.25 -57.1875 8.316406 -57.625 9.578125 -57.625 Z M 13.09375 0 L 6.0625 0 L 6.0625 -43.390625 L 13.09375 -43.390625 Z M 13.09375 0 "/></g></g></g><g fill="#000000" fill-opacity="1"><g transform="translate(263.67589, 191.323696)"><g><path d="M 23.078125 -44.375 C 24.285156 -44.375 25.269531 -44.179688 26.03125 -43.796875 L 26.03125 -38.46875 C 22.375 -38.75 19.300781 -37.769531 16.8125 -35.53125 C 14.332031 -33.289062 13.09375 -29.6875 13.09375 -24.71875 L 13.09375 0 L 6.0625 0 L 6.0625 -43.390625 L 13.09375 -43.390625 L 13.09375 -36.59375 L 17.03125 -42.40625 C 18.9375 -43.71875 20.953125 -44.375 23.078125 -44.375 Z M 23.078125 -44.375 "/></g></g></g><g fill="#000000" fill-opacity="1"><g transform="translate(289.052765, 191.323696)"><g><path d="M 9.578125 -57.625 C 10.828125 -57.625 11.890625 -57.1875 12.765625 -56.3125 C 13.640625 -55.445312 14.078125 -54.382812 14.078125 -53.125 C 14.078125 -51.875 13.640625 -50.8125 12.765625 -49.9375 C 11.890625 -49.0625 10.828125 -48.625 9.578125 -48.625 C 8.316406 -48.625 7.25 -49.0625 6.375 -49.9375 C 5.507812 -50.8125 5.078125 -51.875 5.078125 -53.125 C 5.078125 -54.382812 5.507812 -55.445312 6.375 -56.3125 C 7.25 -57.1875 8.316406 -57.625 9.578125 -57.625 Z M 13.09375 0 L 6.0625 0 L 6.0625 -43.390625 L 13.09375 -43.390625 Z M 13.09375 0 "/></g></g></g><g fill="#000000" fill-opacity="1"><g transform="translate(306.898361, 191.323696)"><g><path d="M 23.078125 -22.109375 L 38.46875 0 L 30.28125 0 L 18.90625 -17.4375 L 7.609375 0 L -0.484375 0 L 15.0625 -21.9375 L 0.078125 -43.390625 L 8.4375 -43.390625 L 19.3125 -26.609375 L 30.203125 -43.390625 L 38.3125 -43.390625 Z M 23.078125 -22.109375 "/></g></g></g><g fill="#000000" fill-opacity="1"><g transform="translate(344.718483, 191.323696)"><g/></g></g><g fill="#000000" fill-opacity="1"><g transform="translate(99.367765, 218.095848)"><g><path d="M 7.5 -6.9375 L 4.703125 -6.9375 L 4.703125 0 L 3.0625 0 L 3.0625 -6.9375 L 0.28125 -6.9375 L 0.28125 -8.21875 L 7.5 -8.21875 Z M 7.5 -6.9375 "/></g></g></g><g fill="#000000" fill-opacity="1"><g transform="translate(108.22903, 218.095848)"><g><path d="M 8.1875 -8.21875 L 8.1875 0 L 6.5625 0 L 6.5625 -3.375 L 2.703125 -3.375 L 2.703125 0 L 1.0625 0 L 1.0625 -8.21875 L 2.703125 -8.21875 L 2.703125 -4.6875 L 6.5625 -4.6875 L 6.5625 -8.21875 Z M 8.1875 -8.21875 "/></g></g></g><g fill="#000000" fill-opacity="1"><g transform="translate(118.628784, 218.095848)"><g><path d="M 7 -1.296875 L 7 0 L 1.0625 0 L 1.0625 -8.21875 L 6.875 -8.21875 L 6.875 -6.9375 L 2.703125 -6.9375 L 2.703125 -4.765625 L 6.578125 -4.765625 L 6.578125 -3.46875 L 2.703125 -3.46875 L 2.703125 -1.296875 Z M 7 -1.296875 "/></g></g></g><g fill="#000000" fill-opacity="1"><g transform="translate(127.406565, 218.095848)"><g/></g></g><g fill="#000000" fill-opacity="1"><g transform="translate(131.151427, 218.095848)"><g><path d="M 5.859375 -4.4375 C 6.921875 -4.164062 7.453125 -3.503906 7.453125 -2.453125 C 7.453125 -1.742188 7.226562 -1.1875 6.78125 -0.78125 C 6.34375 -0.375 5.816406 -0.128906 5.203125 -0.046875 C 4.921875 -0.015625 4.535156 0 4.046875 0 L 1.0625 0 L 1.0625 -8.21875 L 4 -8.21875 C 4.4375 -8.21875 4.789062 -8.203125 5.0625 -8.171875 C 5.726562 -8.097656 6.238281 -7.878906 6.59375 -7.515625 C 6.957031 -7.148438 7.140625 -6.6875 7.140625 -6.125 C 7.140625 -5.289062 6.710938 -4.726562 5.859375 -4.4375 Z M 2.703125 -6.9375 L 2.703125 -4.859375 L 3.953125 -4.859375 C 4.148438 -4.859375 4.34375 -4.867188 4.53125 -4.890625 C 5.125 -4.984375 5.421875 -5.320312 5.421875 -5.90625 C 5.421875 -6.488281 5.113281 -6.820312 4.5 -6.90625 C 4.300781 -6.925781 4.101562 -6.9375 3.90625 -6.9375 Z M 4.6875 -1.3125 C 4.988281 -1.332031 5.234375 -1.441406 5.421875 -1.640625 C 5.617188 -1.835938 5.71875 -2.101562 5.71875 -2.4375 C 5.71875 -3.132812 5.363281 -3.519531 4.65625 -3.59375 C 4.457031 -3.613281 4.265625 -3.625 4.078125 -3.625 L 2.703125 -3.625 L 2.703125 -1.296875 L 4.140625 -1.296875 C 4.398438 -1.296875 4.582031 -1.300781 4.6875 -1.3125 Z M 4.6875 -1.3125 "/></g></g></g><g fill="#000000" fill-opacity="1"><g transform="translate(140.418175, 218.095848)"><g><path d="M 7 -1.296875 L 7 0 L 1.0625 0 L 1.0625 -8.21875 L 6.875 -8.21875 L 6.875 -6.9375 L 2.703125 -6.9375 L 2.703125 -4.765625 L 6.578125 -4.765625 L 6.578125 -3.46875 L 2.703125 -3.46875 L 2.703125 -1.296875 Z M 7 -1.296875 "/></g></g></g><g fill="#000000" fill-opacity="1"><g transform="translate(149.195958, 218.095848)"><g><path d="M 7.5 -6.9375 L 4.703125 -6.9375 L 4.703125 0 L 3.0625 0 L 3.0625 -6.9375 L 0.28125 -6.9375 L 0.28125 -8.21875 L 7.5 -8.21875 Z M 7.5 -6.9375 "/></g></g></g><g fill="#000000" fill-opacity="1"><g transform="translate(158.057224, 218.095848)"><g><path d="M 7.5 -6.9375 L 4.703125 -6.9375 L 4.703125 0 L 3.0625 0 L 3.0625 -6.9375 L 0.28125 -6.9375 L 0.28125 -8.21875 L 7.5 -8.21875 Z M 7.5 -6.9375 "/></g></g></g><g fill="#000000" fill-opacity="1"><g transform="translate(166.91849, 218.095848)"><g><path d="M 7 -1.296875 L 7 0 L 1.0625 0 L 1.0625 -8.21875 L 6.875 -8.21875 L 6.875 -6.9375 L 2.703125 -6.9375 L 2.703125 -4.765625 L 6.578125 -4.765625 L 6.578125 -3.46875 L 2.703125 -3.46875 L 2.703125 -1.296875 Z M 7 -1.296875 "/></g></g></g><g fill="#000000" fill-opacity="1"><g transform="translate(175.696272, 218.095848)"><g><path d="M 7.015625 -2.078125 C 7.117188 -1.097656 7.320312 -0.40625 7.625 0 L 5.8125 0 C 5.613281 -0.550781 5.476562 -1.164062 5.40625 -1.84375 C 5.300781 -2.769531 4.929688 -3.253906 4.296875 -3.296875 C 4.148438 -3.304688 3.9375 -3.3125 3.65625 -3.3125 L 2.703125 -3.3125 L 2.703125 0 L 1.0625 0 L 1.0625 -8.21875 L 4.0625 -8.21875 C 4.519531 -8.21875 4.914062 -8.203125 5.25 -8.171875 C 5.90625 -8.085938 6.429688 -7.867188 6.828125 -7.515625 C 7.222656 -7.160156 7.421875 -6.648438 7.421875 -5.984375 C 7.421875 -5.460938 7.273438 -5.035156 6.984375 -4.703125 C 6.703125 -4.367188 6.3125 -4.128906 5.8125 -3.984375 C 6.507812 -3.710938 6.910156 -3.078125 7.015625 -2.078125 Z M 2.703125 -4.546875 L 3.84375 -4.546875 C 4.164062 -4.546875 4.382812 -4.546875 4.5 -4.546875 C 5.289062 -4.617188 5.6875 -5.015625 5.6875 -5.734375 C 5.6875 -6.109375 5.59375 -6.382812 5.40625 -6.5625 C 5.21875 -6.738281 4.953125 -6.851562 4.609375 -6.90625 C 4.410156 -6.925781 4.175781 -6.9375 3.90625 -6.9375 L 2.703125 -6.9375 Z M 2.703125 -4.546875 "/></g></g></g><g fill="#000000" fill-opacity="1"><g transform="translate(184.927246, 218.095848)"><g/></g></g><g fill="#000000" fill-opacity="1"><g transform="translate(188.67211, 218.095848)"><g><path d="M 11.8125 -8.21875 L 9.640625 0 L 7.453125 0 L 6.046875 -6.84375 L 4.5625 0 L 2.375 0 L 0.3125 -8.21875 L 2.09375 -8.21875 L 3.46875 -1.265625 L 4.921875 -8.109375 L 7.234375 -8.109375 L 8.640625 -1.234375 L 10.125 -8.21875 Z M 11.8125 -8.21875 "/></g></g></g><g fill="#000000" fill-opacity="1"><g transform="translate(201.874558, 218.095848)"><g><path d="M 4.671875 -8.390625 C 5.929688 -8.390625 6.921875 -8 7.640625 -7.21875 C 8.367188 -6.445312 8.734375 -5.410156 8.734375 -4.109375 C 8.734375 -2.816406 8.367188 -1.78125 7.640625 -1 C 6.921875 -0.21875 5.929688 0.171875 4.671875 0.171875 C 3.421875 0.171875 2.429688 -0.21875 1.703125 -1 C 0.972656 -1.78125 0.609375 -2.816406 0.609375 -4.109375 C 0.609375 -5.410156 0.96875 -6.445312 1.6875 -7.21875 C 2.414062 -8 3.410156 -8.390625 4.671875 -8.390625 Z M 2.953125 -1.859375 C 3.367188 -1.328125 3.941406 -1.0625 4.671875 -1.0625 C 5.398438 -1.0625 5.972656 -1.332031 6.390625 -1.875 C 6.804688 -2.414062 7.015625 -3.160156 7.015625 -4.109375 C 7.015625 -5.078125 6.804688 -5.828125 6.390625 -6.359375 C 5.972656 -6.898438 5.398438 -7.171875 4.671875 -7.171875 C 3.929688 -7.171875 3.351562 -6.898438 2.9375 -6.359375 C 2.53125 -5.828125 2.328125 -5.078125 2.328125 -4.109375 C 2.328125 -3.148438 2.535156 -2.398438 2.953125 -1.859375 Z M 2.953125 -1.859375 "/></g></g></g><g fill="#000000" fill-opacity="1"><g transform="translate(212.429362, 218.095848)"><g><path d="M 7.015625 -2.078125 C 7.117188 -1.097656 7.320312 -0.40625 7.625 0 L 5.8125 0 C 5.613281 -0.550781 5.476562 -1.164062 5.40625 -1.84375 C 5.300781 -2.769531 4.929688 -3.253906 4.296875 -3.296875 C 4.148438 -3.304688 3.9375 -3.3125 3.65625 -3.3125 L 2.703125 -3.3125 L 2.703125 0 L 1.0625 0 L 1.0625 -8.21875 L 4.0625 -8.21875 C 4.519531 -8.21875 4.914062 -8.203125 5.25 -8.171875 C 5.90625 -8.085938 6.429688 -7.867188 6.828125 -7.515625 C 7.222656 -7.160156 7.421875 -6.648438 7.421875 -5.984375 C 7.421875 -5.460938 7.273438 -5.035156 6.984375 -4.703125 C 6.703125 -4.367188 6.3125 -4.128906 5.8125 -3.984375 C 6.507812 -3.710938 6.910156 -3.078125 7.015625 -2.078125 Z M 2.703125 -4.546875 L 3.84375 -4.546875 C 4.164062 -4.546875 4.382812 -4.546875 4.5 -4.546875 C 5.289062 -4.617188 5.6875 -5.015625 5.6875 -5.734375 C 5.6875 -6.109375 5.59375 -6.382812 5.40625 -6.5625 C 5.21875 -6.738281 4.953125 -6.851562 4.609375 -6.90625 C 4.410156 -6.925781 4.175781 -6.9375 3.90625 -6.9375 L 2.703125 -6.9375 Z M 2.703125 -4.546875 "/></g></g></g><g fill="#000000" fill-opacity="1"><g transform="translate(221.660336, 218.095848)"><g><path d="M 4.578125 -4.296875 L 8.046875 0 L 5.921875 0 L 3.390625 -3.328125 L 2.703125 -2.59375 L 2.703125 0 L 1.0625 0 L 1.0625 -8.21875 L 2.703125 -8.21875 L 2.703125 -4.25 L 6.265625 -8.21875 L 8.21875 -8.21875 Z M 4.578125 -4.296875 "/></g></g></g><g fill="#000000" fill-opacity="1"><g transform="translate(231.237171, 218.095848)"><g><path d="M 3.796875 -8.390625 C 4.734375 -8.390625 5.445312 -8.15625 5.9375 -7.6875 C 6.4375 -7.21875 6.734375 -6.59375 6.828125 -5.8125 L 5.15625 -5.8125 C 5.101562 -6.238281 4.957031 -6.570312 4.71875 -6.8125 C 4.476562 -7.050781 4.148438 -7.171875 3.734375 -7.171875 C 3.390625 -7.171875 3.109375 -7.085938 2.890625 -6.921875 C 2.679688 -6.753906 2.578125 -6.507812 2.578125 -6.1875 C 2.578125 -5.832031 2.703125 -5.554688 2.953125 -5.359375 C 3.210938 -5.160156 3.671875 -4.988281 4.328125 -4.84375 C 5.222656 -4.632812 5.882812 -4.316406 6.3125 -3.890625 C 6.738281 -3.472656 6.953125 -2.929688 6.953125 -2.265625 C 6.953125 -1.515625 6.65625 -0.921875 6.0625 -0.484375 C 5.476562 -0.046875 4.757812 0.171875 3.90625 0.171875 C 2.90625 0.171875 2.109375 -0.046875 1.515625 -0.484375 C 0.921875 -0.929688 0.582031 -1.582031 0.5 -2.4375 L 2.1875 -2.4375 C 2.269531 -2 2.46875 -1.660156 2.78125 -1.421875 C 3.09375 -1.179688 3.460938 -1.0625 3.890625 -1.0625 C 4.265625 -1.0625 4.582031 -1.15625 4.84375 -1.34375 C 5.101562 -1.539062 5.234375 -1.789062 5.234375 -2.09375 C 5.234375 -2.445312 5.109375 -2.726562 4.859375 -2.9375 C 4.609375 -3.15625 4.1875 -3.335938 3.59375 -3.484375 C 2.664062 -3.703125 1.972656 -3.992188 1.515625 -4.359375 C 1.066406 -4.734375 0.84375 -5.273438 0.84375 -5.984375 C 0.84375 -6.710938 1.128906 -7.296875 1.703125 -7.734375 C 2.273438 -8.171875 2.972656 -8.390625 3.796875 -8.390625 Z M 3.796875 -8.390625 "/></g></g></g><g fill="#000000" fill-opacity="1"><g transform="translate(239.919535, 218.095848)"><g><path d="M 5.109375 -8.171875 C 5.765625 -8.097656 6.296875 -7.84375 6.703125 -7.40625 C 7.109375 -6.976562 7.3125 -6.394531 7.3125 -5.65625 C 7.3125 -4.9375 7.101562 -4.359375 6.6875 -3.921875 C 6.269531 -3.492188 5.742188 -3.238281 5.109375 -3.15625 C 4.765625 -3.113281 4.363281 -3.09375 3.90625 -3.09375 L 2.703125 -3.09375 L 2.703125 0 L 1.0625 0 L 1.0625 -8.21875 L 3.90625 -8.21875 C 4.375 -8.21875 4.773438 -8.203125 5.109375 -8.171875 Z M 4.609375 -4.4375 C 5.265625 -4.53125 5.59375 -4.9375 5.59375 -5.65625 C 5.59375 -6.382812 5.265625 -6.796875 4.609375 -6.890625 C 4.429688 -6.910156 4.191406 -6.921875 3.890625 -6.921875 L 2.703125 -6.921875 L 2.703125 -4.40625 L 3.890625 -4.40625 C 4.191406 -4.40625 4.429688 -4.414062 4.609375 -4.4375 Z M 4.609375 -4.4375 "/></g></g></g><g fill="#000000" fill-opacity="1"><g transform="translate(248.780801, 218.095848)"><g><path d="M 5.515625 -2.484375 L 2.75 -2.484375 L 1.9375 0 L 0.171875 0 L 3.140625 -8.21875 L 5.203125 -8.21875 L 8.125 0 L 6.328125 0 Z M 4.15625 -6.8125 L 3.171875 -3.78125 L 5.109375 -3.78125 Z M 4.15625 -6.8125 "/></g></g></g><g fill="#000000" fill-opacity="1"><g transform="translate(258.27416, 218.095848)"><g><path d="M 4.59375 -8.390625 C 5.664062 -8.390625 6.503906 -8.128906 7.109375 -7.609375 C 7.710938 -7.085938 8.054688 -6.40625 8.140625 -5.5625 L 8.15625 -5.4375 L 6.515625 -5.4375 L 6.484375 -5.5625 C 6.265625 -6.632812 5.625 -7.171875 4.5625 -7.171875 C 3.894531 -7.171875 3.359375 -6.898438 2.953125 -6.359375 C 2.546875 -5.828125 2.34375 -5.09375 2.34375 -4.15625 C 2.34375 -3.164062 2.546875 -2.398438 2.953125 -1.859375 C 3.359375 -1.328125 3.890625 -1.0625 4.546875 -1.0625 C 5.066406 -1.0625 5.484375 -1.207031 5.796875 -1.5 C 6.117188 -1.789062 6.335938 -2.203125 6.453125 -2.734375 L 6.46875 -2.84375 L 8.109375 -2.84375 L 8.09375 -2.734375 C 8.007812 -1.835938 7.644531 -1.128906 7 -0.609375 C 6.351562 -0.0859375 5.507812 0.171875 4.46875 0.171875 C 3.3125 0.171875 2.378906 -0.207031 1.671875 -0.96875 C 0.960938 -1.738281 0.609375 -2.769531 0.609375 -4.0625 C 0.609375 -5.382812 0.976562 -6.4375 1.71875 -7.21875 C 2.46875 -8 3.425781 -8.390625 4.59375 -8.390625 Z M 4.59375 -8.390625 "/></g></g></g><g fill="#000000" fill-opacity="1"><g transform="translate(268.268419, 218.095848)"><g><path d="M 7 -1.296875 L 7 0 L 1.0625 0 L 1.0625 -8.21875 L 6.875 -8.21875 L 6.875 -6.9375 L 2.703125 -6.9375 L 2.703125 -4.765625 L 6.578125 -4.765625 L 6.578125 -3.46875 L 2.703125 -3.46875 L 2.703125 -1.296875 Z M 7 -1.296875 "/></g></g></g></svg>