<svg xmlns="http://www.w3.org/2000/svg" xmlns:xlink="http://www.w3.org/1999/xlink" viewBox="0 0 512 512" width="512" height="512" preserveAspectRatio="xMidYMid meet" style="width: 100%; height: 100%; transform: translate3d(0px, 0px, 0px); content-visibility: visible;" id="java-script"><defs><clipPath id="__lottie_element_1961"><rect width="512" height="512" x="0" y="0"/></clipPath><g id="__lottie_element_1965"><g transform="matrix(1,0,0,1,-23.871017456054688,-47.8699951171875)" opacity="1" style="display: block;"><g opacity="1" transform="matrix(1,0,0,1,279.22601318359375,301.677001953125)"><path stroke-linecap="butt" stroke-linejoin="miter" fill-opacity="0" stroke-miterlimit="10" stroke="rgb(96,96,96)" stroke-opacity="1" stroke-width="40" d=" M-64.6449966430664,-85.54900360107422 C-64.6449966430664,-85.54900360107422 -64.6449966430664,104.90299987792969 -64.6449966430664,104.90299987792969 C-64.6449966430664,104.90299987792969 -56.90299987792969,132 -98.70999908447266,139.74200439453125 C-98.70999908447266,139.74200439453125 -168.38699340820312,107.22599792480469 -168.38699340820312,107.22599792480469 C-168.38699340820312,107.22599792480469 -179.2259979248047,101.03199768066406 -176.12899780273438,81.677001953125 C-176.12899780273438,81.677001953125 -176.68499755859375,-85.54900360107422 -176.68499755859375,-85.54900360107422 C-176.68499755859375,-85.54900360107422 -176.9029998779297,-102.58000183105469 -160.64500427246094,-107.2249984741211 C-160.64500427246094,-107.2249984741211 -3.4839999675750732,-195.48399353027344 -3.4839999675750732,-195.48399353027344 C-3.4839999675750732,-195.48399353027344 5.807000160217285,-201.67799377441406 11.22599983215332,-195.48399353027344 C11.22599983215332,-195.48399353027344 169.93600463867188,-101.03199768066406 169.93600463867188,-101.03199768066406 C169.93600463867188,-101.03199768066406 179.2259979248047,-90.96700286865234 177.67799377441406,-76.25800323486328 C177.67799377441406,-76.25800323486328 177.8520050048828,93.29100036621094 177.8520050048828,93.29100036621094 C177.8520050048828,93.29100036621094 176.12899780273438,107.9990005493164 162.96800231933594,111.87000274658203 C162.96800231933594,111.87000274658203 99.1259994506836,147.3719940185547 52.42399978637695,173.34300231933594"/></g></g></g><mask id="__lottie_element_1965_1" mask-type="alpha"><use xmlns:ns1="http://www.w3.org/1999/xlink" ns1:href="#__lottie_element_1965"/></mask></defs><g clip-path="url(#__lottie_element_1961)"><g mask="url(#__lottie_element_1965_1)" style="display: block;"><g transform="matrix(1,0,0,1,65.18600463867188,44.25700378417969)" opacity="1"><g opacity="1" transform="matrix(1,0,0,1,190.81500244140625,211.8719940185547)"><path fill="rgb(0,0,0)" fill-opacity="1" d=" M174.23399353027344,-116.94100189208984 C121.89700317382812,-146.53700256347656 69.54900360107422,-176.1060028076172 17.187999725341797,-205.6490020751953 C6.505000114440918,-211.6219940185547 -6.513999938964844,-211.6219940185547 -17.19700050354004,-205.6490020751953 C-69.3550033569336,-176.1959991455078 -121.51399993896484,-146.74400329589844 -173.677001953125,-117.29299926757812 C-184.01100158691406,-111.66100311279297 -190.4759979248047,-100.86599731445312 -190.56500244140625,-89.09600067138672 C-190.56500244140625,-89.09600067138672 -190.56500244140625,88.86299896240234 -190.56500244140625,88.86299896240234 C-190.39500427246094,100.85099792480469 -183.65899658203125,111.77899932861328 -173.0260009765625,117.31800079345703 C-158.04200744628906,125.4729995727539 -143.48399353027344,134.4600067138672 -128.22900390625,142.072998046875 C-110.37699890136719,151.61599731445312 -89.07599639892578,152.20199584960938 -70.72699737548828,143.6529998779297 C-56.93600082397461,135.01400756835938 -48.93199920654297,119.55899810791016 -49.83599853515625,103.30999755859375 C-49.720001220703125,44.57899856567383 -49.81700134277344,-14.154000282287598 -49.790000915527344,-72.88600158691406 C-49.38999938964844,-75.40399932861328 -51.106998443603516,-77.76899719238281 -53.624000549316406,-78.16999816894531 C-53.79600143432617,-78.197998046875 -53.970001220703125,-78.21499633789062 -54.14400100708008,-78.2229995727539 C-60.808998107910156,-78.33100128173828 -67.48500061035156,-78.28600311279297 -74.1500015258789,-78.24099731445312 C-76.56800079345703,-78.45800018310547 -78.7040023803711,-76.67400360107422 -78.9209976196289,-74.25499725341797 C-78.93599700927734,-74.08799743652344 -78.94200134277344,-73.9209976196289 -78.93800354003906,-73.75399780273438 C-79.0270004272461,-15.399999618530273 -78.91999816894531,42.970001220703125 -78.99099731445312,101.33300018310547 C-78.95999908447266,109.58300018310547 -84.05999755859375,116.98300170898438 -91.77999877929688,119.89099884033203 C-100.55999755859375,122.48699951171875 -110.02999877929688,121.21900177001953 -117.81900024414062,116.40599822998047 C-131.6999969482422,108.56600189208984 -145.58099365234375,100.72699737548828 -159.46200561523438,92.88899993896484 C-161.3459930419922,91.99600219726562 -162.4739990234375,90.02400207519531 -162.28900146484375,87.947998046875 C-162.28900146484375,87.947998046875 -162.28900146484375,-88.18499755859375 -162.28900146484375,-88.18499755859375 C-162.48699951171875,-90.5270004272461 -161.15699768066406,-92.73200225830078 -158.99200439453125,-93.64900207519531 C-107.00599670410156,-122.9280014038086 -55.02899932861328,-152.23800659179688 -3.062000036239624,-181.57899475097656 C-1.215000033378601,-182.84100341796875 1.218000054359436,-182.83700561523438 3.062000036239624,-181.57000732421875 C55.047000885009766,-152.281005859375 107.02799987792969,-122.98300170898438 159.00799560546875,-93.67400360107422 C161.16099548339844,-92.73200225830078 162.47799682617188,-90.5260009765625 162.28599548339844,-88.18399810791016 C162.27699279785156,-29.481000900268555 162.27099609375,29.226999282836914 162.26800537109375,87.94000244140625 C162.45599365234375,90.02300262451172 161.34800720214844,92.00900268554688 159.4770050048828,92.94400024414062 C108.28700256347656,121.88899993896484 57.06999969482422,150.79299926757812 5.824999809265137,179.65499877929688 C3.377000093460083,181.01800537109375 0.4779999852180481,183.21299743652344 -2.384999990463257,181.55999755859375 C-15.805999755859375,173.96400451660156 -29.062999725341797,166.07200622558594 -42.43899917602539,158.4029998779297 C-43.8380012512207,157.33299255371094 -45.744998931884766,157.218994140625 -47.262001037597656,158.11399841308594 C-53.15299987792969,161.5659942626953 -59.35599899291992,164.4600067138672 -65.78600311279297,166.75799560546875 C-68.68599700927734,167.9320068359375 -72.25299835205078,168.26600646972656 -74.24800109863281,170.9550018310547 C-71.70500183105469,173.72300720214844 -68.62200164794922,175.9429931640625 -65.19100189208984,177.47799682617188 C-49.547000885009766,186.53599548339844 -33.895999908447266,195.58599853515625 -18.236000061035156,204.6280059814453 C-7.686999797821045,211.2519989013672 5.626999855041504,211.6219940185547 16.527999877929688,205.593994140625 C68.69300079345703,176.17999267578125 120.85600280761719,146.7519989013672 173.01600646972656,117.31199645996094 C183.63999938964844,111.76300048828125 190.37399291992188,100.84600067138672 190.56500244140625,88.86199951171875 C190.56500244140625,88.86199951171875 190.56500244140625,-89.09600067138672 190.56500244140625,-89.09600067138672 C190.4759979248047,-100.6259994506836 184.2530059814453,-111.23500061035156 174.23500061035156,-116.94100189208984 C174.23500061035156,-116.94100189208984 174.23399353027344,-116.94100189208984 174.23399353027344,-116.94100189208984z"/></g></g></g><g transform="matrix(1,0,0,1,220.28298950195312,170.52000427246094)" opacity="1" style="display: block;"><g opacity="1" transform="matrix(1,0,0,1,83.05599975585938,87.19200134277344)"><path fill="rgb(0,0,0)" fill-opacity="1" d=" M4.698999881744385,58.82899856567383 C-11.092000007629395,60.36800003051758 -26.99799919128418,57.47200012207031 -41.233001708984375,50.465999603271484 C-47.750999450683594,45.250999450683594 -51.82099914550781,37.573001861572266 -52.47800064086914,29.25200080871582 C-52.50600051879883,26.679000854492188 -54.612998962402344,24.615999221801758 -57.18600082397461,24.64299964904785 C-57.202999114990234,24.64299964904785 -57.220001220703125,24.643999099731445 -57.23699951171875,24.643999099731445 C-63.88600158691406,24.562999725341797 -70.53299713134766,24.58099937438965 -77.18000030517578,24.635000228881836 C-79.59700012207031,24.38800048828125 -81.76399993896484,26.131999969482422 -82.03900146484375,28.547000885009766 C-82.80599975585938,43.17100143432617 -77.00800323486328,57.374000549316406 -66.2249984741211,67.28199768066406 C-52.78099822998047,77.77300262451172 -36.45600128173828,83.91400146484375 -19.430999755859375,84.88400268554688 C-1.690999984741211,86.94200134277344 16.261999130249023,86.18000030517578 33.763999938964844,82.6259994506836 C47.20199966430664,80.11900329589844 59.52299880981445,73.47899627685547 69.00599670410156,63.632999420166016 C79.66400146484375,50.49300003051758 82.80599975585938,32.79199981689453 77.3219985961914,16.78700065612793 C72.73100280761719,5.539000034332275 63.189998626708984,-2.9489998817443848 51.48400115966797,-6.198999881744385 C24.58799934387207,-15.63599967956543 -4.466000080108643,-14.92199993133545 -31.88599967956543,-22.093000411987305 C-36.645999908447266,-23.591999053955078 -42.4630012512207,-25.218000411987305 -44.58399963378906,-30.257999420166016 C-47.097999572753906,-37.529998779296875 -44.698001861572266,-45.595001220703125 -38.61600112915039,-50.30799865722656 C-30.006999969482422,-55.229000091552734 -20.20400047302246,-57.66899871826172 -10.293000221252441,-57.36000061035156 C3.1589999198913574,-58.62699890136719 16.718000411987305,-56.6870002746582 29.274999618530273,-51.69900131225586 C36.909000396728516,-47.20899963378906 42.183998107910156,-39.59000015258789 43.696998596191406,-30.863000869750977 C43.77199935913086,-28.22599983215332 45.84400177001953,-26.079999923706055 48.47700119018555,-25.913999557495117 C55.077999114990234,-25.780000686645508 61.680999755859375,-25.878000259399414 68.28199768066406,-25.868999481201172 C70.64900207519531,-25.586000442504883 72.86299896240234,-27.08799934387207 73.47599792480469,-29.392000198364258 C73.59500122070312,-47.507999420166016 64.11399841308594,-64.33499908447266 48.555999755859375,-73.61799621582031 C27.451000213623047,-83.35800170898438 4.026000022888184,-86.94200134277344 -19.025999069213867,-83.95899963378906 C-19.025999069213867,-83.95899963378906 -19.025999069213867,-83.95999908447266 -19.025999069213867,-83.95999908447266 C-35.91600036621094,-83.26799774169922 -52.051998138427734,-76.78399658203125 -64.7249984741211,-65.5979995727539 C-76.59600067138672,-52.80400085449219 -80.13600158691406,-34.362998962402344 -73.84700012207031,-18.08300018310547 C-68.99199676513672,-7.264999866485596 -59.64099884033203,0.8830000162124634 -48.26100158691406,4.214000225067139 C-21.454999923706055,13.897000312805176 7.925000190734863,10.789999961853027 34.992000579833984,19.351999282836914 C40.26599884033203,21.141000747680664 46.40800094604492,23.87700080871582 48.02399826049805,29.74799919128418 C49.79100036621094,36.90599822998047 47.637001037597656,44.46500015258789 42.361000061035156,49.617000579833984 C31.104000091552734,56.61000061035156 17.913000106811523,59.83700180053711 4.698999881744385,58.82899856567383z"/></g></g></g></svg>